<mxfile host="app.diagrams.net" modified="2024-07-11T01:29:34.160Z" agent="Mozilla/5.0 (Windows NT 10.0; Win64; x64) AppleWebKit/537.36 (KHTML, like Gecko) Chrome/126.0.0.0 Safari/537.36" version="24.4.8" etag="gub9EsIUMHOUOZZex4zi" type="github">
  <diagram name="第 1 页" id="JsU02VB0PhXyzmzozluO">
    <mxGraphModel>
      <root>
        <mxCell id="0" />
        <mxCell id="1" parent="0" />
      </root>
    </mxGraphModel>
  </diagram>
</mxfile>
